<?xml version="1.0" encoding="utf-8"?>
<svg xmlns="http://www.w3.org/2000/svg" width="398" height="259" viewBox="0 0 398 259" fill="none">
<path d="M61.2967 257.761C90.076 261.824 116.677 241.523 120.711 212.418C124.745 183.313 104.685 156.425 75.9062 152.362C47.127 148.299 20.5264 168.6 16.4921 197.705C12.4578 226.81 32.5175 253.698 61.2967 257.761Z" fill="#F9F4F2"/>
<path d="M66.4695 220.436C74.8671 221.622 82.629 215.698 83.806 207.205C84.983 198.713 79.13 190.867 70.7325 189.681C62.3349 188.496 54.5731 194.419 53.3959 202.912C52.2187 211.405 58.0719 219.25 66.4695 220.436Z" fill="#141313"/>
<path d="M149.101 234.678C177.881 238.741 204.481 218.44 208.516 189.335C212.55 160.23 192.49 133.342 163.711 129.279C134.932 125.216 108.331 145.517 104.297 174.622C100.263 203.727 120.322 230.615 149.101 234.678Z" fill="#F9F4F2"/>
<mask id="mask0_759_634" style="mask-type:luminance" maskUnits="userSpaceOnUse" x="103" y="128" width="107" height="108">
<path d="M149.104 234.69C177.879 238.749 204.48 218.442 208.518 189.333C212.556 160.224 192.503 133.336 163.727 129.277C134.952 125.218 108.351 145.525 104.313 174.634C100.275 203.743 120.328 230.631 149.104 234.69Z" fill="white"/>
</mask>
<g mask="url(#mask0_759_634)">
<path d="M243.157 0.4888C228.774 -63.4455 165.801 -103.45 102.503 -88.8637C39.2041 -74.2775 -0.449869 -10.6241 13.933 53.3101C28.3158 117.244 91.2889 157.249 154.588 142.663C217.886 128.076 257.54 64.423 243.157 0.4888Z" fill="#FFCAE7"/>
</g>
<path d="M156.229 197.475C164.707 197.581 171.669 190.715 171.778 182.14C171.888 173.565 165.103 166.528 156.625 166.422C148.147 166.317 141.185 173.182 141.075 181.757C140.966 190.332 147.75 197.369 156.229 197.475Z" fill="#141313"/>
<path d="M21.8613 210.745C6.94136 210.928 -3.65934 196.111 1.18776 181.844L16.7742 135.954C17.3874 134.154 19.0511 132.936 20.9335 132.914C22.8158 132.893 24.5115 134.068 25.1673 135.852L41.8416 181.348C47.0246 195.491 36.7812 210.562 21.8613 210.74V210.745Z" fill="#00A4FF"/>
<path d="M262.578 171.032C285.227 176.953 298.858 200.344 293.001 223.238C287.144 246.131 264.002 259.91 241.353 253.989C218.705 248.068 205.073 224.677 210.931 201.784C216.788 178.89 239.929 165.112 262.578 171.032Z" fill="#02873E"/>
<path d="M365.49 41.9294L284.055 10.0015L231.515 146.919L312.951 178.847L365.49 41.9294Z" fill="#02873E"/>
<mask id="mask1_759_634" style="mask-type:luminance" maskUnits="userSpaceOnUse" x="231" y="10" width="135" height="169">
<path d="M365.471 41.9279L284.035 10L231.496 146.918L312.931 178.846L365.471 41.9279Z" fill="white"/>
</mask>
<g mask="url(#mask1_759_634)">
<path d="M384.338 120.991C358.45 126.754 355.478 133.638 370.53 155.049C371.991 157.125 369.544 159.709 367.428 158.328C345.597 144.081 338.925 147.392 334.381 173.789C333.949 176.29 330.438 176.365 329.896 173.888C324.194 147.721 317.385 144.716 296.202 159.932C294.148 161.408 291.591 158.935 292.958 156.796C307.052 134.729 303.777 127.985 277.662 123.392C275.188 122.956 275.113 119.407 277.564 118.859C303.451 113.095 306.424 106.212 291.372 84.8C289.911 82.724 292.357 80.14 294.474 81.522C316.305 95.768 322.977 92.458 327.521 66.06C327.952 63.56 331.463 63.484 332.005 65.961C337.707 92.128 344.517 95.133 365.7 79.918C367.754 78.441 370.31 80.914 368.944 83.054C354.849 105.12 358.124 111.865 384.24 116.457C386.714 116.894 386.788 120.443 384.338 120.991Z" fill="#0B662A"/>
</g>
<path d="M396.421 108.395C363.826 113.861 361.038 120.01 380.301 146.729C380.933 147.61 379.849 148.706 378.981 148.063C352.548 128.596 346.461 131.415 341.057 164.358C340.88 165.425 339.368 165.425 339.192 164.358C333.784 131.411 327.701 128.592 301.268 148.063C300.396 148.702 299.312 147.606 299.948 146.729C319.207 120.01 316.418 113.857 283.827 108.395C282.771 108.217 282.771 106.688 283.827 106.51C316.422 101.044 319.211 94.895 299.948 68.176C299.316 67.295 300.4 66.199 301.268 66.842C327.701 86.309 333.788 83.49 339.192 50.5474C339.368 49.4796 340.88 49.4796 341.057 50.5474C346.465 83.494 352.548 86.313 378.981 66.842C379.853 66.203 380.937 67.299 380.301 68.176C361.042 94.895 363.83 101.048 396.421 106.51C397.478 106.688 397.478 108.217 396.421 108.395Z" fill="white"/>
<path d="M24.0273 53.145L121.394 20.4399L73.5528 103.433L230.103 23.9804L134.78 115.422L271.214 79.134" stroke="#FF76B8" stroke-width="40.38" stroke-linejoin="round"/>
</svg>